<svg xmlns="http://www.w3.org/2000/svg" xmlns:xlink="http://www.w3.org/1999/xlink" width="500" zoomAndPan="magnify" viewBox="0 0 375 374.999991" height="500" preserveAspectRatio="xMidYMid meet" version="1.0"><defs><clipPath id="6fbcfb4bd8"><path d="M 87.660156 52.246094 L 287.160156 52.246094 L 287.160156 322.996094 L 87.660156 322.996094 Z M 87.660156 52.246094 " clip-rule="nonzero"/></clipPath></defs><g clip-path="url(#6fbcfb4bd8)"><path fill="#e9e0cf" d="M 277.332031 161.910156 L 263.535156 161.910156 L 263.535156 128.367188 C 263.589844 86.382812 229.453125 52.246094 187.46875 52.246094 C 145.488281 52.246094 111.351562 86.382812 111.351562 128.367188 L 111.351562 161.910156 L 97.609375 161.910156 C 92.144531 161.910156 87.707031 166.34375 87.707031 171.808594 L 87.707031 312.90625 C 87.707031 318.316406 92.144531 322.75 97.609375 322.75 L 277.386719 322.75 C 282.847656 322.75 287.285156 318.316406 287.285156 312.851562 L 287.285156 171.808594 C 287.230469 166.34375 282.796875 161.910156 277.332031 161.910156 Z M 131.152344 128.367188 C 131.152344 97.3125 156.414062 72.046875 187.46875 72.046875 C 218.523438 72.046875 243.789062 97.3125 243.789062 128.367188 L 243.789062 161.910156 L 131.152344 161.910156 Z M 197.371094 249.445312 L 197.371094 275.464844 C 197.371094 280.929688 192.933594 285.367188 187.46875 285.367188 C 182.003906 285.367188 177.570312 280.929688 177.570312 275.464844 L 177.570312 249.445312 C 170.753906 245.875 166.097656 238.730469 166.097656 230.5625 C 166.097656 218.769531 175.675781 209.246094 187.414062 209.246094 C 199.210938 209.246094 208.730469 218.824219 208.730469 230.5625 C 208.839844 238.730469 204.1875 245.875 197.371094 249.445312 Z M 197.371094 249.445312 " fill-opacity="1" fill-rule="nonzero"/></g></svg>