<svg xmlns="http://www.w3.org/2000/svg" xmlns:xlink="http://www.w3.org/1999/xlink" width="500" zoomAndPan="magnify" viewBox="0 0 375 374.999991" height="500" preserveAspectRatio="xMidYMid meet" version="1.0"><path fill="#e9e0cf" d="M 187.5 0 C 84.113281 0 0 84.113281 0 187.5 C 0 290.886719 84.113281 375 187.5 375 C 290.886719 375 375 290.886719 375 187.5 C 375 84.113281 290.886719 0 187.5 0 Z M 306.132812 298.382812 C 281.679688 256.601562 236.835938 230.425781 187.492188 230.425781 C 138.160156 230.425781 93.324219 256.601562 68.867188 298.382812 C 41.6875 269.324219 25 230.335938 25 187.5 C 25 97.898438 97.898438 25 187.5 25 C 277.101562 25 350 97.898438 350 187.5 C 350 230.335938 333.3125 269.324219 306.132812 298.382812 Z M 306.132812 298.382812 " fill-opacity="1" fill-rule="nonzero"/><path fill="#e9e0cf" d="M 187.5 55.429688 C 145.355469 55.429688 111.066406 89.714844 111.066406 131.863281 C 111.066406 174.007812 145.355469 208.300781 187.5 208.300781 C 229.648438 208.300781 263.9375 174.007812 263.9375 131.863281 C 263.9375 89.714844 229.648438 55.429688 187.5 55.429688 Z M 187.5 55.429688 " fill-opacity="1" fill-rule="nonzero"/></svg>