<svg xmlns="http://www.w3.org/2000/svg" xmlns:xlink="http://www.w3.org/1999/xlink" width="500" zoomAndPan="magnify" viewBox="0 0 375 374.999991" height="500" preserveAspectRatio="xMidYMid meet" version="1.0"><defs><clipPath id="5cffc12f41"><path d="M 250 98.957031 L 374.996094 98.957031 L 374.996094 275.914062 L 250 275.914062 Z M 250 98.957031 " clip-rule="nonzero"/></clipPath></defs><path fill="#e9e0cf" d="M 235.8125 230.9375 L 20.128906 230.9375 C 14.746094 230.9375 10.386719 226.582031 10.386719 221.21875 L 10.386719 173.183594 C 10.386719 167.820312 14.746094 163.464844 20.128906 163.464844 L 251.992188 163.464844 C 252.183594 163.367188 252.375 163.296875 252.542969 163.226562 L 252.542969 153.074219 L 20.128906 153.074219 C 9 153.074219 0 162.074219 0 173.183594 L 0 221.21875 C 0 232.324219 9 241.324219 20.128906 241.324219 L 235.8125 241.324219 L 235.8125 230.9375 " fill-opacity="1" fill-rule="nonzero"/><path fill="#e9e0cf" d="M 92.773438 186.441406 L 89.445312 180.914062 C 88.441406 179.238281 86.121094 178.902344 84.46875 179.8125 L 76.6875 184.238281 L 76.6875 176.484375 C 76.6875 174.257812 75.039062 172.582031 72.8125 172.582031 L 66.707031 172.582031 C 64.503906 172.582031 62.832031 174.257812 62.832031 176.484375 L 62.832031 184.238281 L 55.074219 179.8125 C 53.398438 178.902344 51.078125 179.238281 50.097656 180.914062 L 46.769531 186.441406 C 45.644531 188.238281 46.195312 190.4375 47.871094 191.445312 L 55.625 195.871094 L 47.871094 200.324219 C 46.195312 201.304688 45.765625 203.652344 46.769531 205.304688 L 50.097656 210.855469 C 51.199219 212.507812 53.398438 212.960938 55.074219 211.957031 L 62.832031 207.527344 L 62.832031 215.285156 C 62.832031 217.511719 64.503906 219.160156 66.707031 219.160156 L 72.8125 219.160156 C 75.039062 219.160156 76.6875 217.511719 76.6875 215.285156 L 76.6875 207.527344 L 84.46875 211.957031 C 86.121094 212.960938 88.34375 212.507812 89.445312 210.855469 L 92.773438 205.304688 C 93.777344 203.652344 93.324219 201.304688 91.671875 200.324219 L 83.894531 195.871094 L 91.671875 191.445312 C 93.324219 190.4375 93.875 188.238281 92.773438 186.441406 " fill-opacity="1" fill-rule="nonzero"/><path fill="#e9e0cf" d="M 158.953125 186.441406 L 155.628906 180.914062 C 154.644531 179.238281 152.300781 178.902344 150.648438 179.8125 L 142.894531 184.238281 L 142.894531 176.484375 C 142.894531 174.257812 141.21875 172.582031 139.015625 172.582031 L 132.914062 172.582031 C 130.6875 172.582031 129.035156 174.257812 129.035156 176.484375 L 129.035156 184.238281 L 121.257812 179.8125 C 119.605469 178.902344 117.285156 179.238281 116.277344 180.914062 L 112.949219 186.441406 C 111.851562 188.238281 112.402344 190.4375 114.050781 191.445312 L 121.832031 195.871094 L 114.050781 200.324219 C 112.402344 201.304688 111.945312 203.652344 112.949219 205.304688 L 116.277344 210.855469 C 117.378906 212.507812 119.605469 212.960938 121.257812 211.957031 L 129.035156 207.527344 L 129.035156 215.285156 C 129.035156 217.511719 130.6875 219.160156 132.914062 219.160156 L 139.015625 219.160156 C 141.21875 219.160156 142.894531 217.511719 142.894531 215.285156 L 142.894531 207.527344 L 150.648438 211.957031 C 152.300781 212.960938 154.527344 212.507812 155.628906 210.855469 L 158.953125 205.304688 C 159.960938 203.652344 159.527344 201.304688 157.855469 200.324219 L 150.097656 195.871094 L 157.855469 191.445312 C 159.527344 190.4375 160.078125 188.238281 158.953125 186.441406 " fill-opacity="1" fill-rule="nonzero"/><path fill="#e9e0cf" d="M 225.160156 186.441406 L 221.832031 180.914062 C 220.828125 179.238281 218.503906 178.902344 216.832031 179.8125 L 209.074219 184.238281 L 209.074219 176.484375 C 209.074219 174.257812 207.421875 172.582031 205.199219 172.582031 L 199.09375 172.582031 C 196.890625 172.582031 195.214844 174.257812 195.214844 176.484375 L 195.214844 184.238281 L 187.460938 179.8125 C 185.785156 178.902344 183.464844 179.238281 182.460938 180.914062 L 179.132812 186.441406 C 178.03125 188.238281 178.582031 190.4375 180.257812 191.445312 L 188.011719 195.871094 L 180.257812 200.324219 C 178.582031 201.304688 178.152344 203.652344 179.132812 205.304688 L 182.460938 210.855469 C 183.585938 212.507812 185.785156 212.960938 187.460938 211.957031 L 195.214844 207.527344 L 195.214844 215.285156 C 195.214844 217.511719 196.890625 219.160156 199.09375 219.160156 L 205.199219 219.160156 C 207.421875 219.160156 209.074219 217.511719 209.074219 215.285156 L 209.074219 207.527344 L 216.832031 211.957031 C 218.503906 212.960938 220.730469 212.507812 221.832031 210.855469 L 225.160156 205.304688 C 226.140625 203.652344 225.710938 201.304688 224.035156 200.324219 L 216.28125 195.871094 L 224.035156 191.445312 C 225.710938 190.4375 226.261719 188.238281 225.160156 186.441406 " fill-opacity="1" fill-rule="nonzero"/><g clip-path="url(#5cffc12f41)"><path fill="#e9e0cf" d="M 300.796875 259.0625 L 306.753906 218.324219 C 302.855469 216.242188 300.222656 212.148438 300.222656 207.410156 C 300.222656 200.585938 305.75 195.058594 312.570312 195.058594 C 319.394531 195.058594 324.921875 200.585938 324.921875 207.410156 C 324.921875 212.148438 322.265625 216.242188 318.386719 218.324219 L 324.324219 259.0625 Z M 340.3125 144.53125 L 340.3125 176.199219 L 285.046875 176.199219 L 285.046875 144.53125 C 285.046875 129.308594 297.445312 116.910156 312.691406 116.910156 C 327.914062 116.910156 340.3125 129.308594 340.3125 144.53125 Z M 363.984375 176.199219 L 358.265625 176.199219 L 358.265625 144.53125 C 358.265625 119.398438 337.824219 98.957031 312.691406 98.957031 C 287.535156 98.957031 267.09375 119.398438 267.09375 144.53125 L 267.09375 176.199219 L 261.375 176.199219 C 258.335938 176.199219 255.582031 177.441406 253.59375 179.429688 C 252.828125 180.171875 252.207031 181.03125 251.679688 181.964844 C 250.84375 183.546875 250.363281 185.316406 250.363281 187.230469 L 250.363281 264.902344 C 250.363281 266.792969 250.84375 268.589844 251.679688 270.144531 C 252.207031 271.078125 252.828125 271.9375 253.59375 272.679688 C 255.582031 274.691406 258.335938 275.914062 261.375 275.914062 L 363.984375 275.914062 C 370.066406 275.914062 374.996094 270.980469 374.996094 264.902344 L 374.996094 187.230469 C 374.996094 181.128906 370.066406 176.199219 363.984375 176.199219 " fill-opacity="1" fill-rule="nonzero"/></g></svg>