<svg xmlns="http://www.w3.org/2000/svg" xmlns:xlink="http://www.w3.org/1999/xlink" width="50" zoomAndPan="magnify" viewBox="0 0 37.5 37.499999" height="50" preserveAspectRatio="xMidYMid meet" version="1.0"><defs><clipPath id="9a413b2fd6"><path d="M 3.085938 0.707031 L 34 0.707031 L 34 36.234375 L 3.085938 36.234375 Z M 3.085938 0.707031 " clip-rule="nonzero"/></clipPath></defs><g clip-path="url(#9a413b2fd6)"><path fill="#ce2029" d="M 31.40625 4.558594 L 26.277344 4.558594 L 26.277344 3.828125 C 26.277344 2.109375 24.878906 0.714844 23.164062 0.714844 L 13.804688 0.714844 C 12.085938 0.714844 10.6875 2.109375 10.6875 3.828125 L 10.6875 4.558594 L 5.5625 4.558594 C 4.21875 4.558594 3.125 5.652344 3.125 6.996094 L 3.125 8.152344 C 3.125 9.410156 4.082031 10.449219 5.304688 10.574219 L 7.816406 32.597656 C 8.054688 34.699219 9.832031 36.285156 11.949219 36.285156 L 25.019531 36.285156 C 27.136719 36.285156 28.914062 34.699219 29.152344 32.597656 L 31.660156 10.574219 C 32.886719 10.449219 33.84375 9.410156 33.84375 8.152344 L 33.84375 6.996094 C 33.84375 5.652344 32.75 4.558594 31.40625 4.558594 Z M 12.269531 3.828125 C 12.269531 2.980469 12.957031 2.292969 13.804688 2.292969 L 23.164062 2.292969 C 24.007812 2.292969 24.695312 2.980469 24.695312 3.828125 L 24.695312 4.558594 L 12.269531 4.558594 Z M 27.582031 32.417969 C 27.433594 33.722656 26.332031 34.703125 25.019531 34.703125 L 11.949219 34.703125 C 10.636719 34.703125 9.535156 33.722656 9.386719 32.417969 L 6.898438 10.589844 L 30.070312 10.589844 Z M 32.261719 8.152344 C 32.261719 8.625 31.878906 9.007812 31.40625 9.007812 L 5.5625 9.007812 C 5.089844 9.007812 4.703125 8.625 4.703125 8.152344 L 4.703125 6.996094 C 4.703125 6.527344 5.089844 6.140625 5.5625 6.140625 L 31.40625 6.140625 C 31.878906 6.140625 32.261719 6.527344 32.261719 6.996094 Z M 32.261719 8.152344 " fill-opacity="1" fill-rule="nonzero"/></g><path fill="#ce2029" d="M 18.484375 30.425781 C 18.921875 30.425781 19.273438 30.070312 19.273438 29.632812 L 19.273438 15.660156 C 19.273438 15.222656 18.921875 14.871094 18.484375 14.871094 C 18.046875 14.871094 17.691406 15.222656 17.691406 15.660156 L 17.691406 29.632812 C 17.691406 30.070312 18.046875 30.425781 18.484375 30.425781 Z M 18.484375 30.425781 " fill-opacity="1" fill-rule="nonzero"/><path fill="#ce2029" d="M 23.210938 30.386719 C 23.238281 30.390625 23.261719 30.390625 23.289062 30.390625 C 23.691406 30.390625 24.035156 30.085938 24.074219 29.675781 L 25.429688 15.769531 C 25.472656 15.335938 25.152344 14.949219 24.71875 14.90625 C 24.277344 14.859375 23.898438 15.179688 23.855469 15.617188 L 22.5 29.523438 C 22.457031 29.957031 22.777344 30.34375 23.210938 30.386719 Z M 23.210938 30.386719 " fill-opacity="1" fill-rule="nonzero"/><path fill="#ce2029" d="M 13.679688 30.390625 C 13.703125 30.390625 13.730469 30.390625 13.757812 30.386719 C 14.191406 30.34375 14.507812 29.957031 14.464844 29.523438 L 13.113281 15.617188 C 13.070312 15.179688 12.6875 14.863281 12.246094 14.90625 C 11.8125 14.949219 11.496094 15.335938 11.539062 15.769531 L 12.890625 29.675781 C 12.933594 30.085938 13.277344 30.390625 13.679688 30.390625 Z M 13.679688 30.390625 " fill-opacity="1" fill-rule="nonzero"/></svg>