<svg xmlns="http://www.w3.org/2000/svg" xmlns:xlink="http://www.w3.org/1999/xlink" width="500" zoomAndPan="magnify" viewBox="0 0 375 374.999991" height="500" preserveAspectRatio="xMidYMid meet" version="1.0"><path fill="#ffffff" d="M 187.5 60 C 191.640625 60 195 56.640625 195 52.5 L 195 7.5 C 195 3.359375 191.640625 0 187.5 0 C 183.359375 0 180 3.359375 180 7.5 L 180 52.5 C 180 56.640625 183.359375 60 187.5 60 Z M 187.5 60 " fill-opacity="1" fill-rule="nonzero"/><path fill="#ffffff" d="M 367.5 180 L 322.5 180 C 318.351562 180 315 183.359375 315 187.5 C 315 191.640625 318.351562 195 322.5 195 L 367.5 195 C 371.648438 195 375 191.640625 375 187.5 C 375 183.359375 371.648438 180 367.5 180 Z M 367.5 180 " fill-opacity="1" fill-rule="nonzero"/><path fill="#ffffff" d="M 60 187.5 C 60 183.359375 56.640625 180 52.5 180 L 7.5 180 C 3.359375 180 0 183.359375 0 187.5 C 0 191.640625 3.359375 195 7.5 195 L 52.5 195 C 56.640625 195 60 191.640625 60 187.5 Z M 60 187.5 " fill-opacity="1" fill-rule="nonzero"/><path fill="#ffffff" d="M 282.960938 99.539062 C 284.878906 99.539062 286.800781 98.804688 288.261719 97.34375 L 320.085938 65.519531 C 323.015625 62.585938 323.015625 57.847656 320.085938 54.914062 C 317.152344 51.984375 312.414062 51.984375 309.480469 54.914062 L 277.65625 86.738281 C 274.726562 89.671875 274.726562 94.410156 277.65625 97.34375 C 279.121094 98.804688 281.039062 99.539062 282.960938 99.539062 Z M 282.960938 99.539062 " fill-opacity="1" fill-rule="nonzero"/><path fill="#ffffff" d="M 86.738281 97.34375 C 88.199219 98.804688 90.121094 99.539062 92.039062 99.539062 C 93.960938 99.539062 95.878906 98.804688 97.34375 97.34375 C 100.273438 94.410156 100.273438 89.671875 97.34375 86.738281 L 65.519531 54.914062 C 62.585938 51.984375 57.847656 51.984375 54.914062 54.914062 C 51.984375 57.847656 51.984375 62.585938 54.914062 65.519531 Z M 86.738281 97.34375 " fill-opacity="1" fill-rule="nonzero"/><path fill="#ffffff" d="M 352.5 240 L 251.085938 240 C 263.257812 225.390625 270 207.03125 270 187.5 C 270 142.011719 232.988281 105 187.5 105 C 142.011719 105 105 142.011719 105 187.5 C 105 207.03125 111.742188 225.382812 123.914062 240 L 22.5 240 C 18.359375 240 15 243.351562 15 247.5 C 15 251.648438 18.359375 255 22.5 255 L 352.5 255 C 356.648438 255 360 251.648438 360 247.5 C 360 243.351562 356.648438 240 352.5 240 Z M 120.007812 187.5 C 120.007812 150.285156 150.285156 120 187.507812 120 C 224.730469 120 255.007812 150.277344 255.007812 187.5 C 255.007812 208.125 245.761719 227.078125 229.65625 240 L 145.363281 240 C 129.261719 227.085938 120.007812 208.125 120.007812 187.5 Z M 120.007812 187.5 " fill-opacity="1" fill-rule="nonzero"/><path fill="#ffffff" d="M 227.199219 317.199219 L 187.5 356.894531 L 147.800781 317.199219 C 144.871094 314.265625 140.128906 314.265625 137.199219 317.199219 C 134.265625 320.128906 134.265625 324.871094 137.199219 327.800781 L 182.199219 372.800781 C 183.660156 374.265625 185.578125 375 187.5 375 C 189.421875 375 191.339844 374.265625 192.800781 372.800781 L 237.800781 327.800781 C 240.734375 324.871094 240.734375 320.128906 237.800781 317.199219 C 234.871094 314.265625 230.128906 314.265625 227.199219 317.199219 Z M 227.199219 317.199219 " fill-opacity="1" fill-rule="nonzero"/></svg>