<svg xmlns="http://www.w3.org/2000/svg" xmlns:xlink="http://www.w3.org/1999/xlink" width="500" zoomAndPan="magnify" viewBox="0 0 375 374.999991" height="500" preserveAspectRatio="xMidYMid meet" version="1.0"><path fill="#ffffff" d="M 187.5 59.878906 C 191.632812 59.878906 194.984375 56.527344 194.984375 52.394531 L 194.984375 7.484375 C 194.984375 3.351562 191.632812 0 187.5 0 C 183.367188 0 180.015625 3.351562 180.015625 7.484375 L 180.015625 52.394531 C 180.015625 56.527344 183.367188 59.878906 187.5 59.878906 Z M 187.5 59.878906 " fill-opacity="1" fill-rule="nonzero"/><path fill="#ffffff" d="M 367.140625 179.640625 L 322.230469 179.640625 C 318.089844 179.640625 314.746094 182.992188 314.746094 187.125 C 314.746094 191.257812 318.089844 194.609375 322.230469 194.609375 L 367.140625 194.609375 C 371.28125 194.609375 374.625 191.257812 374.625 187.125 C 374.625 182.992188 371.28125 179.640625 367.140625 179.640625 Z M 367.140625 179.640625 " fill-opacity="1" fill-rule="nonzero"/><path fill="#ffffff" d="M 60.253906 187.125 C 60.253906 182.992188 56.902344 179.640625 52.769531 179.640625 L 7.859375 179.640625 C 3.726562 179.640625 0.375 182.992188 0.375 187.125 C 0.375 191.257812 3.726562 194.609375 7.859375 194.609375 L 52.769531 194.609375 C 56.902344 194.609375 60.253906 191.257812 60.253906 187.125 Z M 60.253906 187.125 " fill-opacity="1" fill-rule="nonzero"/><path fill="#ffffff" d="M 282.769531 99.339844 C 284.6875 99.339844 286.601562 98.609375 288.0625 97.148438 L 319.820312 65.390625 C 322.746094 62.460938 322.746094 57.730469 319.820312 54.804688 C 316.894531 51.878906 312.164062 51.878906 309.238281 54.804688 L 277.476562 86.5625 C 274.550781 89.492188 274.550781 94.222656 277.476562 97.148438 C 278.9375 98.609375 280.851562 99.339844 282.769531 99.339844 Z M 282.769531 99.339844 " fill-opacity="1" fill-rule="nonzero"/><path fill="#ffffff" d="M 86.9375 97.148438 C 88.398438 98.609375 90.3125 99.339844 92.230469 99.339844 C 94.148438 99.339844 96.0625 98.609375 97.523438 97.148438 C 100.449219 94.222656 100.449219 89.492188 97.523438 86.5625 L 65.761719 54.804688 C 62.835938 51.878906 58.105469 51.878906 55.179688 54.804688 C 52.253906 57.730469 52.253906 62.460938 55.179688 65.390625 Z M 86.9375 97.148438 " fill-opacity="1" fill-rule="nonzero"/><path fill="#ffffff" d="M 352.171875 239.519531 L 250.957031 239.519531 C 263.105469 224.941406 269.835938 206.617188 269.835938 187.125 C 269.835938 141.730469 232.898438 104.789062 187.5 104.789062 C 142.101562 104.789062 105.164062 141.730469 105.164062 187.125 C 105.164062 206.617188 111.894531 224.933594 124.042969 239.519531 L 22.828125 239.519531 C 18.699219 239.519531 15.34375 242.867188 15.34375 247.007812 C 15.34375 251.144531 18.699219 254.492188 22.828125 254.492188 L 352.171875 254.492188 C 356.308594 254.492188 359.65625 251.144531 359.65625 247.007812 C 359.65625 242.867188 356.308594 239.519531 352.171875 239.519531 Z M 120.140625 187.125 C 120.140625 149.984375 150.359375 119.761719 187.507812 119.761719 C 224.65625 119.761719 254.871094 149.976562 254.871094 187.125 C 254.871094 207.710938 245.644531 226.625 229.574219 239.519531 L 145.449219 239.519531 C 129.378906 226.632812 120.140625 207.710938 120.140625 187.125 Z M 120.140625 187.125 " fill-opacity="1" fill-rule="nonzero"/><path fill="#ffffff" d="M 192.792969 316.5625 C 189.867188 313.636719 185.132812 313.636719 182.207031 316.5625 L 137.296875 361.472656 C 134.371094 364.402344 134.371094 369.132812 137.296875 372.058594 C 140.222656 374.984375 144.957031 374.984375 147.882812 372.058594 L 187.5 332.441406 L 227.117188 372.058594 C 228.578125 373.519531 230.492188 374.25 232.410156 374.25 C 234.328125 374.25 236.242188 373.519531 237.703125 372.058594 C 240.628906 369.132812 240.628906 364.402344 237.703125 361.472656 Z M 192.792969 316.5625 " fill-opacity="1" fill-rule="nonzero"/></svg>