<svg xmlns="http://www.w3.org/2000/svg" xmlns:xlink="http://www.w3.org/1999/xlink" width="1080" zoomAndPan="magnify" viewBox="0 0 810 809.999993" height="1080" preserveAspectRatio="xMidYMid meet" version="1.0"><path fill="#ffffff" d="M 405.023438 810.023438 C 181.703125 810.023438 0 628.347656 0 405.023438 C 0 181.703125 181.703125 0 405.023438 0 C 628.347656 0 810.050781 181.703125 810.050781 405.023438 C 810.050781 628.347656 628.347656 810.023438 405.023438 810.023438 Z M 405.023438 33.746094 C 200.316406 33.746094 33.746094 200.289062 33.746094 405.023438 C 33.746094 609.761719 200.289062 776.304688 405.023438 776.304688 C 609.761719 776.304688 776.304688 609.761719 776.304688 405.023438 C 776.304688 200.289062 609.734375 33.746094 405.023438 33.746094 Z M 405.023438 33.746094 " fill-opacity="1" fill-rule="nonzero"/><path fill="#ffffff" d="M 406.980469 523.148438 C 305.691406 523.148438 223.269531 439.886719 223.269531 337.535156 C 223.269531 235.179688 305.667969 151.894531 406.980469 151.894531 C 508.269531 151.894531 590.664062 235.179688 590.664062 337.535156 C 590.664062 439.886719 508.242188 523.148438 406.980469 523.148438 Z M 406.980469 185.640625 C 324.304688 185.640625 257.042969 253.765625 257.042969 337.535156 C 257.042969 421.277344 324.304688 489.402344 406.980469 489.402344 C 489.65625 489.402344 556.917969 421.277344 556.917969 337.535156 C 556.894531 253.765625 489.65625 185.640625 406.980469 185.640625 Z M 406.980469 185.640625 " fill-opacity="1" fill-rule="nonzero"/><path fill="#ffffff" d="M 659.121094 708.789062 C 652.570312 708.789062 646.347656 704.953125 643.605469 698.554688 C 602.953125 603.742188 507.203125 540.035156 405.328125 540.035156 C 303.484375 540.035156 207.730469 603.742188 167.078125 698.554688 C 163.398438 707.113281 153.46875 711.074219 144.910156 707.417969 C 136.355469 703.734375 132.394531 693.808594 136.050781 685.25 C 181.957031 578.199219 290.179688 506.289062 405.328125 506.289062 C 520.507812 506.289062 628.753906 578.222656 674.636719 685.25 C 678.316406 693.808594 674.332031 703.734375 665.773438 707.417969 C 663.589844 708.355469 661.332031 708.789062 659.121094 708.789062 Z M 659.121094 708.789062 " fill-opacity="1" fill-rule="nonzero"/></svg>