<svg xmlns="http://www.w3.org/2000/svg" xmlns:xlink="http://www.w3.org/1999/xlink" width="1080" zoomAndPan="magnify" viewBox="0 0 810 809.999993" height="1080" preserveAspectRatio="xMidYMid meet" version="1.0"><defs><clipPath id="5dab9483eb"><path d="M 36.921875 11 L 768 11 L 768 801.433594 L 36.921875 801.433594 Z M 36.921875 11 " clip-rule="nonzero"/></clipPath></defs><g clip-path="url(#5dab9483eb)"><path fill="#000000" d="M 318.027344 11.632812 C 225.132812 11.632812 149.363281 87.375 149.363281 180.246094 C 149.363281 273.113281 225.132812 348.855469 318.027344 348.855469 C 410.925781 348.855469 486.691406 273.113281 486.691406 180.246094 C 486.691406 87.375 410.925781 11.632812 318.027344 11.632812 Z M 318.027344 348.855469 C 162.980469 348.855469 36.921875 474.875 36.921875 629.875 L 93.144531 629.875 C 93.144531 505.832031 193.945312 405.058594 318.027344 405.058594 C 370.296875 405.058594 417.734375 423.71875 455.945312 453.359375 L 495.257812 413.402344 C 446.722656 373.882812 385.449219 348.855469 318.027344 348.855469 Z M 318.027344 67.835938 C 380.398438 67.835938 430.472656 117.894531 430.472656 180.246094 C 430.472656 242.59375 380.398438 292.652344 318.027344 292.652344 C 255.65625 292.652344 205.585938 242.59375 205.585938 180.246094 C 205.585938 117.894531 255.65625 67.835938 318.027344 67.835938 Z M 666.777344 349.074219 C 648.550781 349.292969 630.320312 356.320312 616.703125 370.371094 L 354.484375 636.898438 L 315.394531 801.121094 L 479.664062 762.261719 L 485.15625 756.550781 L 746.496094 499.902344 C 774.386719 472.679688 774.828125 426.792969 746.9375 399.132812 L 717.507812 369.492188 C 703.671875 355.660156 685.222656 348.855469 666.777344 349.074219 Z M 667.214844 404.839844 C 670.949219 404.839844 674.683594 406.375 677.757812 409.449219 L 707.1875 438.871094 C 713.335938 444.796875 713.335938 453.796875 707.1875 459.945312 L 451.554688 710.886719 L 390.941406 725.597656 L 405.433594 665 L 656.894531 409.449219 C 659.75 406.375 663.484375 404.839844 667.214844 404.839844 Z M 667.214844 404.839844 " fill-opacity="1" fill-rule="nonzero"/></g></svg>