<svg xmlns="http://www.w3.org/2000/svg" xmlns:xlink="http://www.w3.org/1999/xlink" width="1080" zoomAndPan="magnify" viewBox="0 0 810 809.999993" height="1080" preserveAspectRatio="xMidYMid meet" version="1.0"><defs><clipPath id="3fd3e3dc6d"><path d="M 36.921875 11 L 768 11 L 768 801 L 36.921875 801 Z M 36.921875 11 " clip-rule="nonzero"/></clipPath></defs><g clip-path="url(#3fd3e3dc6d)"><path fill="#ffffff" d="M 317.894531 11.632812 C 225.042969 11.632812 149.3125 87.363281 149.3125 180.214844 C 149.3125 273.070312 225.042969 348.800781 317.894531 348.800781 C 410.746094 348.800781 486.476562 273.070312 486.476562 180.214844 C 486.476562 87.363281 410.746094 11.632812 317.894531 11.632812 Z M 317.894531 348.800781 C 162.921875 348.800781 36.921875 474.800781 36.921875 629.773438 L 93.117188 629.773438 C 93.117188 505.75 193.871094 404.996094 317.894531 404.996094 C 370.136719 404.996094 417.550781 423.652344 455.746094 453.285156 L 495.039062 413.335938 C 446.527344 373.824219 385.285156 348.800781 317.894531 348.800781 Z M 317.894531 67.828125 C 380.234375 67.828125 430.285156 117.875 430.285156 180.214844 C 430.285156 242.558594 380.234375 292.605469 317.894531 292.605469 C 255.554688 292.605469 205.503906 242.558594 205.503906 180.214844 C 205.503906 117.875 255.554688 67.828125 317.894531 67.828125 Z M 666.476562 349.019531 C 648.257812 349.238281 630.039062 356.265625 616.429688 370.3125 L 354.332031 636.796875 L 315.261719 800.992188 L 479.453125 762.136719 L 484.941406 756.429688 L 746.160156 499.824219 C 774.035156 472.605469 774.476562 426.726562 746.597656 399.066406 L 717.183594 369.433594 C 703.355469 355.605469 684.914062 348.800781 666.476562 349.019531 Z M 666.914062 404.773438 C 670.648438 404.773438 674.378906 406.3125 677.453125 409.386719 L 706.867188 438.800781 C 713.011719 444.726562 713.011719 453.726562 706.867188 459.871094 L 451.355469 710.773438 L 390.773438 725.480469 L 405.257812 664.894531 L 656.597656 409.386719 C 659.453125 406.3125 663.183594 404.773438 666.914062 404.773438 Z M 666.914062 404.773438 " fill-opacity="1" fill-rule="nonzero"/></g></svg>