<svg xmlns="http://www.w3.org/2000/svg" xmlns:xlink="http://www.w3.org/1999/xlink" width="500" zoomAndPan="magnify" viewBox="0 0 375 374.999991" height="500" preserveAspectRatio="xMidYMid meet" version="1.0"><defs><clipPath id="cb113ca016"><path d="M 12.421875 44 L 319 44 L 319 273 L 12.421875 273 Z M 12.421875 44 " clip-rule="nonzero"/></clipPath><clipPath id="6eafd2e141"><path d="M 325 106 L 362.671875 106 L 362.671875 118 L 325 118 Z M 325 106 " clip-rule="nonzero"/></clipPath></defs><path fill="#ffffff" d="M 187.5 60 C 191.640625 60 195 56.640625 195 52.5 L 195 7.5 C 195 3.359375 191.640625 0 187.5 0 C 183.359375 0 180 3.359375 180 7.5 L 180 52.5 C 180 56.640625 183.359375 60 187.5 60 Z M 187.5 60 " fill-opacity="1" fill-rule="nonzero"/><path fill="#ffffff" d="M 367.5 180 L 322.5 180 C 318.351562 180 315 183.359375 315 187.5 C 315 191.640625 318.351562 195 322.5 195 L 367.5 195 C 371.648438 195 375 191.640625 375 187.5 C 375 183.359375 371.648438 180 367.5 180 Z M 367.5 180 " fill-opacity="1" fill-rule="nonzero"/><path fill="#ffffff" d="M 60 187.5 C 60 183.359375 56.640625 180 52.5 180 L 7.5 180 C 3.359375 180 0 183.359375 0 187.5 C 0 191.640625 3.359375 195 7.5 195 L 52.5 195 C 56.640625 195 60 191.640625 60 187.5 Z M 60 187.5 " fill-opacity="1" fill-rule="nonzero"/><path fill="#ffffff" d="M 282.960938 99.539062 C 284.878906 99.539062 286.800781 98.804688 288.261719 97.34375 L 320.085938 65.519531 C 323.015625 62.585938 323.015625 57.847656 320.085938 54.914062 C 317.152344 51.984375 312.414062 51.984375 309.480469 54.914062 L 277.65625 86.738281 C 274.726562 89.671875 274.726562 94.410156 277.65625 97.34375 C 279.121094 98.804688 281.039062 99.539062 282.960938 99.539062 Z M 282.960938 99.539062 " fill-opacity="1" fill-rule="nonzero"/><path fill="#ffffff" d="M 86.738281 97.34375 C 88.199219 98.804688 90.121094 99.539062 92.039062 99.539062 C 93.960938 99.539062 95.878906 98.804688 97.34375 97.34375 C 100.273438 94.410156 100.273438 89.671875 97.34375 86.738281 L 65.519531 54.914062 C 62.585938 51.984375 57.847656 51.984375 54.914062 54.914062 C 51.984375 57.847656 51.984375 62.585938 54.914062 65.519531 Z M 86.738281 97.34375 " fill-opacity="1" fill-rule="nonzero"/><path fill="#ffffff" d="M 352.5 240 L 251.085938 240 C 263.257812 225.390625 270 207.03125 270 187.5 C 270 142.011719 232.988281 105 187.5 105 C 142.011719 105 105 142.011719 105 187.5 C 105 207.03125 111.742188 225.382812 123.914062 240 L 22.5 240 C 18.359375 240 15 243.351562 15 247.5 C 15 251.648438 18.359375 255 22.5 255 L 352.5 255 C 356.648438 255 360 251.648438 360 247.5 C 360 243.351562 356.648438 240 352.5 240 Z M 120.007812 187.5 C 120.007812 150.285156 150.285156 120 187.507812 120 C 224.730469 120 255.007812 150.277344 255.007812 187.5 C 255.007812 208.125 245.761719 227.078125 229.65625 240 L 145.363281 240 C 129.261719 227.085938 120.007812 208.125 120.007812 187.5 Z M 120.007812 187.5 " fill-opacity="1" fill-rule="nonzero"/><path fill="#ffffff" d="M 227.199219 317.199219 L 187.5 356.894531 L 147.800781 317.199219 C 144.871094 314.265625 140.128906 314.265625 137.199219 317.199219 C 134.265625 320.128906 134.265625 324.871094 137.199219 327.800781 L 182.199219 372.800781 C 183.660156 374.265625 185.578125 375 187.5 375 C 189.421875 375 191.339844 374.265625 192.800781 372.800781 L 237.800781 327.800781 C 240.734375 324.871094 240.734375 320.128906 237.800781 317.199219 C 234.871094 314.265625 230.128906 314.265625 227.199219 317.199219 Z M 227.199219 317.199219 " fill-opacity="1" fill-rule="nonzero"/><g clip-path="url(#cb113ca016)"><path fill="#ffffff" d="M 318.503906 112.050781 C 318.503906 74.570312 288.03125 44.074219 250.570312 44.074219 C 217.558594 44.074219 189.710938 67.414062 183.757812 99.75 C 171.691406 88.058594 155.359375 81.125 138.011719 81.125 C 103.683594 81.125 75.394531 107.457031 72.332031 140.980469 C 38.769531 144.085938 12.4375 172.328125 12.4375 206.703125 C 12.4375 243.074219 42.003906 272.679688 78.414062 272.679688 L 231.980469 272.679688 C 268.09375 272.382812 297.488281 242.816406 297.488281 206.703125 C 297.488281 193.238281 293.328125 180.527344 286.160156 169.890625 C 306.414062 157.394531 318.503906 135.78125 318.503906 112.050781 Z M 194.164062 112.050781 C 194.164062 111.226562 194.160156 110.402344 194.246094 109.464844 C 195.570312 79.3125 220.3125 55.6875 250.570312 55.6875 C 281.648438 55.6875 306.933594 80.972656 306.933594 112.050781 C 306.933594 131.828125 296.328125 150.40625 279.261719 160.546875 C 279.113281 160.632812 279.019531 160.757812 278.882812 160.855469 C 271.804688 153.515625 263.070312 147.761719 253.121094 144.339844 C 249.847656 124.429688 232.578125 109.457031 211.988281 109.457031 C 205.949219 109.457031 200.078125 110.777344 194.632812 113.285156 C 194.46875 113.011719 194.289062 112.761719 194.121094 112.492188 C 194.128906 112.34375 194.164062 112.203125 194.164062 112.050781 Z M 231.9375 259.917969 L 78.414062 259.917969 C 78.371094 259.917969 78.371094 259.917969 78.328125 259.917969 C 49.019531 259.875 25.199219 236.011719 25.199219 206.703125 C 25.199219 177.347656 49.0625 153.441406 78.414062 153.441406 C 85.476562 153.441406 92.324219 154.804688 98.792969 157.484375 C 102.066406 158.84375 105.808594 157.3125 107.128906 154.039062 C 108.488281 150.804688 106.957031 147.0625 103.683594 145.699219 C 97.769531 143.234375 91.515625 141.703125 85.136719 141.019531 C 88.15625 114.519531 110.703125 93.886719 138.011719 93.886719 C 156.984375 93.886719 174.511719 104.097656 183.953125 120.304688 C 179.828125 124.046875 176.464844 128.640625 174.085938 133.746094 C 172.640625 136.980469 174.042969 140.765625 177.234375 142.210938 C 180.421875 143.699219 184.207031 142.296875 185.699219 139.105469 C 186.464844 137.363281 187.441406 135.746094 188.589844 134.214844 C 190.164062 131.960938 192.121094 129.960938 194.332031 128.261719 C 194.800781 127.921875 195.226562 127.578125 195.695312 127.28125 C 200.542969 123.960938 206.160156 122.21875 211.984375 122.21875 C 227.34375 122.21875 240.019531 134.214844 240.871094 149.527344 C 241.039062 152.292969 242.910156 154.632812 245.550781 155.355469 C 254.101562 157.695312 261.714844 162.078125 267.925781 167.90625 C 269.882812 169.734375 271.667969 171.691406 273.328125 173.816406 C 280.515625 182.964844 284.726562 194.449219 284.726562 206.699219 C 284.730469 235.796875 261.035156 259.703125 231.9375 259.917969 Z M 231.9375 259.917969 " fill-opacity="1" fill-rule="nonzero"/></g><g clip-path="url(#6eafd2e141)"><path fill="#ffffff" d="M 356.820312 106.261719 L 331.757812 106.261719 C 328.566406 106.261719 325.96875 108.859375 325.96875 112.050781 C 325.96875 115.242188 328.566406 117.84375 331.757812 117.84375 L 356.820312 117.84375 C 360.011719 117.84375 362.609375 115.242188 362.609375 112.050781 C 362.609375 108.859375 360.011719 106.261719 356.820312 106.261719 Z M 356.820312 106.261719 " fill-opacity="1" fill-rule="nonzero"/></g><path fill="#ffffff" d="M 250.558594 36.640625 C 253.753906 36.640625 256.351562 34.042969 256.351562 30.847656 L 256.351562 5.792969 C 256.351562 2.597656 253.753906 0 250.558594 0 C 247.367188 0 244.769531 2.597656 244.769531 5.792969 L 244.769531 30.847656 C 244.769531 34.042969 247.367188 36.640625 250.558594 36.640625 Z M 250.558594 36.640625 " fill-opacity="1" fill-rule="nonzero"/><path fill="#ffffff" d="M 307.976562 60.425781 C 309.519531 60.425781 310.976562 59.824219 312.070312 58.726562 L 329.789062 41.007812 C 330.886719 39.914062 331.488281 38.457031 331.488281 36.914062 C 331.488281 35.367188 330.886719 33.914062 329.789062 32.816406 C 327.601562 30.628906 323.792969 30.628906 321.601562 32.816406 L 303.882812 50.539062 C 301.625 52.796875 301.625 56.46875 303.882812 58.726562 C 304.976562 59.824219 306.429688 60.425781 307.976562 60.425781 Z M 307.976562 60.425781 " fill-opacity="1" fill-rule="nonzero"/><path fill="#ffffff" d="M 312.070312 165.375 C 309.882812 163.183594 306.070312 163.1875 303.882812 165.371094 C 302.789062 166.464844 302.183594 167.921875 302.183594 169.46875 C 302.183594 171.015625 302.789062 172.46875 303.882812 173.5625 L 321.601562 191.277344 C 322.691406 192.375 324.144531 192.976562 325.695312 192.976562 C 327.246094 192.976562 328.699219 192.375 329.789062 191.28125 C 330.886719 190.1875 331.488281 188.734375 331.488281 187.1875 C 331.488281 185.640625 330.886719 184.183594 329.789062 183.09375 Z M 312.070312 165.375 " fill-opacity="1" fill-rule="nonzero"/><path fill="#ffffff" d="M 189.046875 58.730469 C 190.144531 59.824219 191.601562 60.425781 193.140625 60.425781 C 194.6875 60.425781 196.136719 59.824219 197.234375 58.726562 C 198.332031 57.632812 198.933594 56.179688 198.933594 54.632812 C 198.933594 53.085938 198.332031 51.632812 197.234375 50.539062 L 179.515625 32.816406 C 177.328125 30.628906 173.519531 30.628906 171.328125 32.816406 C 170.230469 33.914062 169.628906 35.367188 169.628906 36.914062 C 169.628906 38.457031 170.230469 39.914062 171.328125 41.007812 Z M 189.046875 58.730469 " fill-opacity="1" fill-rule="nonzero"/><path fill="#ffffff" d="M 86.390625 331.601562 C 75.390625 331.601562 66.445312 322.652344 66.445312 311.652344 C 66.445312 301.945312 80.328125 284.617188 83.109375 281.242188 C 84.726562 279.285156 88.058594 279.28125 89.671875 281.242188 C 92.457031 284.617188 106.34375 301.945312 106.34375 311.652344 C 106.34375 322.652344 97.390625 331.601562 86.390625 331.601562 Z M 86.394531 290.832031 C 80.882812 298.160156 74.953125 307.570312 74.953125 311.652344 C 74.953125 317.960938 80.085938 323.09375 86.390625 323.09375 C 92.703125 323.09375 97.835938 317.960938 97.835938 311.652344 C 97.835938 307.566406 91.90625 298.152344 86.394531 290.832031 Z M 86.394531 290.832031 " fill-opacity="1" fill-rule="nonzero"/><path fill="#ffffff" d="M 154.941406 331.601562 C 143.941406 331.601562 134.992188 322.652344 134.992188 311.652344 C 134.992188 301.945312 148.878906 284.617188 151.660156 281.242188 C 153.277344 279.28125 156.609375 279.28125 158.226562 281.242188 C 161.007812 284.617188 174.894531 301.945312 174.894531 311.652344 C 174.894531 322.652344 165.941406 331.601562 154.941406 331.601562 Z M 154.941406 290.832031 C 149.429688 298.160156 143.5 307.570312 143.5 311.652344 C 143.5 317.960938 148.632812 323.09375 154.941406 323.09375 C 161.253906 323.09375 166.386719 317.960938 166.386719 311.652344 C 166.386719 307.566406 160.453125 298.152344 154.941406 290.832031 Z M 154.941406 290.832031 " fill-opacity="1" fill-rule="nonzero"/><path fill="#ffffff" d="M 223.492188 331.601562 C 212.492188 331.601562 203.542969 322.652344 203.542969 311.652344 C 203.542969 301.945312 217.425781 284.617188 220.210938 281.242188 C 221.828125 279.28125 225.160156 279.28125 226.773438 281.242188 C 229.558594 284.617188 243.445312 301.945312 243.445312 311.652344 C 243.445312 322.652344 234.492188 331.601562 223.492188 331.601562 Z M 223.492188 290.832031 C 217.980469 298.160156 212.050781 307.570312 212.050781 311.652344 C 212.050781 317.960938 217.183594 323.09375 223.492188 323.09375 C 229.800781 323.09375 234.933594 317.960938 234.933594 311.652344 C 234.9375 307.566406 229.003906 298.152344 223.492188 290.832031 Z M 223.492188 290.832031 " fill-opacity="1" fill-rule="nonzero"/><path fill="#ffffff" d="M 120.667969 375 C 109.667969 375 100.71875 366.050781 100.71875 355.050781 C 100.71875 345.34375 114.605469 328.015625 117.386719 324.640625 C 119.003906 322.679688 122.335938 322.679688 123.953125 324.640625 C 126.734375 328.015625 140.621094 345.34375 140.621094 355.050781 C 140.617188 366.050781 131.667969 375 120.667969 375 Z M 120.667969 334.230469 C 115.15625 341.554688 109.226562 350.96875 109.226562 355.050781 C 109.226562 361.359375 114.359375 366.492188 120.667969 366.492188 C 126.980469 366.492188 132.109375 361.359375 132.109375 355.050781 C 132.109375 350.96875 126.179688 341.554688 120.667969 334.230469 Z M 120.667969 334.230469 " fill-opacity="1" fill-rule="nonzero"/><path fill="#ffffff" d="M 189.21875 375 C 178.21875 375 169.269531 366.050781 169.269531 355.050781 C 169.269531 345.34375 183.152344 328.015625 185.9375 324.640625 C 187.554688 322.679688 190.886719 322.679688 192.5 324.640625 C 195.285156 328.015625 209.171875 345.34375 209.171875 355.050781 C 209.171875 366.050781 200.21875 375 189.21875 375 Z M 189.21875 334.230469 C 183.707031 341.554688 177.777344 350.96875 177.777344 355.050781 C 177.777344 361.359375 182.910156 366.492188 189.21875 366.492188 C 195.527344 366.492188 200.660156 361.359375 200.660156 355.050781 C 200.660156 350.96875 194.730469 341.554688 189.21875 334.230469 Z M 189.21875 334.230469 " fill-opacity="1" fill-rule="nonzero"/></svg>